<?xml version="1.0" encoding="utf-8"?>
<!DOCTYPE svg PUBLIC "-//W3C//DTD SVG 1.1//EN" "http://www.w3.org/Graphics/SVG/1.1/DTD/svg11.dtd">
<!-- Hand Edited File to tidy things up -->
<svg version="1.1" xmlns="http://www.w3.org/2000/svg" xmlns:xlink="http://www.w3.org/1999/xlink" viewBox="0 0 900 1100">
<symbol id="MajorBusStop">
	<g>
		<circle cx="15" cy="15" r="12" fill="white" stroke="black" stroke-width="3" />
	</g>
</symbol>
<symbol id="TransportCentre">
	<g>
		<rect x="3" y="3" width="24" height="24" fill="white" stroke="black" stroke-width="3" />
	</g>
</symbol>
<g id="BG">
	<rect id="river" x="485" y="0" height="1110" width="30" fill="#007FFF" />
</g>
<g id="routes" style="fill:none;stroke-width:4;">
	<!-- Transport Center 400 300 -->
	<path id="r01" style="stroke:#E2E41A;" d="M 400 300 L 400 100" />
	<path id="r02" style="stroke:#F58220;" d="M 400 300 L 400 600 L 450 650 L 600 650 L 750 800 L 800 800" />
	<path id="r03" style="stroke:#F1A424;" d="M 400 300 L 350 350 L 350 550 L 300 600 L 200 600 L 100 700 L 100 100" />
	<path id="r04" style="stroke:#5C89C6;" d="M 400 300 L 400 200 L 430 200 L 460 250 L 540 250 L 600 300 L 700 200 L 600 200" />
	<path id="r05" style="stroke:#E99BB7;" d="M 400 300 L 400 200 L 430 200 L 460 250 L 540 250 L 600 300 L 700 200" />
	<path id="r06" style="stroke:#E86D53;" d="M 400 300 L 350 350 L 350 650 L 300 700 L 200 800 L 200 1000" />
	<path id="r07" style="stroke:#7FD2A8;" d="M 400 300 L 350 350 L 350 650 L 300 700 L 200 800 L 200 1000" />
	<path id="r08" style="stroke:#FBCF18;" d="M 400 300 L 300 300 L 300 400 L 100 400 L 100 200 L 200 300" />
	<path id="r09" style="stroke:#AEC230;" d="M 400 300 L 300 200 L 250 250 L 150 250 L 150 350 L 100 400 L 100 200 L 200 200 L 300 100" />
	<path id="r10" style="stroke:#8B298F;" d="M 400 300 L 450 350 L 450 550 L 400 600 L 450 650 L 550 650 L 600 700 L 800 900" />
	<path id="r11" style="stroke:#93C542;" d="M 400 300 L 400 200 L 430 200 L 460 250 L 540 250 L 600 300 L 700 300" />
	<path id="r12" style="stroke:#F0A06D;" d="M 400 300 L 350 350 L 350 650 L 300 700 L 200 800 L 400 800" />
	<path id="r13" style="stroke:#CDCF23;" d="M 400 300 L 450 350 L 450 550 L 400 600 L 450 650 L 600 650 L 660 700 L 700 700 L 800 700" />
	<path id="r14" style="stroke:#660000;" d="M 400 300 L 450 350 L 450 400 L 600 400 L 700 400 L 800 300 L 700 200" />
	<path id="r15" style="stroke:#00AA4F;" d="M 400 300 L 450 350 L 450 400 L 700 400 L 850 550 L 850 750 L 800 800" />
	<path id="r16" style="stroke:#C3A833;" d="M 400 300 L 460 250 L 540 250 L 600 340 L 660 340 L 700 300 L 700 100" />
	<path id="r17" style="stroke:#E11729;" d="M 400 300 L 450 350 L 450 550 L 400 600 L 450 650 L 550 650 L 600 600 L 750 600 L 800 650 L 800 700" />
	<path id="r18" style="stroke:#80D0F5;" d="M 400 300 L 300 200 L 300 100" />
	<path id="rCE" style="stroke:#EA6848;" d="M 400 300 L 350 250 L 350 150 L 300 100" />
	<path id="rOrbitor" style="stroke:#939598;" d="M 200 100 L 300 100 L 350 150 L 540 150 L 580 200 L 600 200 L 700 100 L 700 700 L 800 700 L 750 750 L 700 750 L 600 650 L 450 650 L 400 700 L 100 700 L 50 650 L 50 450 L 150 350 L 150 150 L 200 100" />
</g>
<g id="stops">
	<!-- Based on a stop having the dimensions of 15x15 these place them directly in the middle of lines -->
	<!-- Row 1 -->
	<use xlink:href="#MajorBusStop" x="85" y="85"/>
	<use xlink:href="#MajorBusStop" x="185" y="85"/>
	<use xlink:href="#MajorBusStop" x="285" y="85"/>
	<use xlink:href="#MajorBusStop" x="385" y="85"/>
	<!-- River -->
	<!--<use xlink:href="#MajorBusStop" x="585" y="85"/>-->
	<use xlink:href="#MajorBusStop" x="685" y="85"/>
	<!--<use xlink:href="#MajorBusStop" x="785" y="85"/>-->
	<!-- Row 2 -->
	<use xlink:href="#MajorBusStop" x="85" y="185"/>
	<!--<use xlink:href="#MajorBusStop" x="185" y="185"/>-->
	<use xlink:href="#MajorBusStop" x="285" y="185"/>
	<use xlink:href="#MajorBusStop" x="385" y="185"/>
	<!-- River -->
	<use xlink:href="#MajorBusStop" x="585" y="185"/>
	<use xlink:href="#MajorBusStop" x="685" y="185"/>
	<!--<use xlink:href="#MajorBusStop" x="785" y="185"/>-->
	<!-- Row 3 -->
	<!--<use xlink:href="#MajorBusStop" x="85" y="285"/>-->
	<use xlink:href="#MajorBusStop" x="185" y="285"/>
	<!--<use xlink:href="#MajorBusStop" x="285" y="285"/>-->
	<use xlink:href="#TransportCentre" x="385" y="285"/>
	<!-- River -->
	<use xlink:href="#MajorBusStop" x="585" y="285"/>
	<use xlink:href="#MajorBusStop" x="685" y="285"/>
	<use xlink:href="#MajorBusStop" x="785" y="285"/>
	<!-- Row 4 -->
	<use xlink:href="#MajorBusStop" x="85" y="385"/>
	<!--<use xlink:href="#MajorBusStop" x="185" y="385"/>-->
	<use xlink:href="#MajorBusStop" x="285" y="385"/>
	<!--<use xlink:href="#MajorBusStop" x="385" y="385"/>-->
	<!-- River -->
	<use xlink:href="#MajorBusStop" x="585" y="385"/>
	<!--<use xlink:href="#MajorBusStop" x="685" y="385"/>-->
	<!--<use xlink:href="#MajorBusStop" x="785" y="385"/>-->
	<!-- Row 5 -->
	<!--<use xlink:href="#MajorBusStop" x="85" y="485"/>-->
	<!--<use xlink:href="#MajorBusStop" x="185" y="485"/>-->
	<!--<use xlink:href="#MajorBusStop" x="285" y="485"/>-->
	<use xlink:href="#MajorBusStop" x="385" y="485"/>
	<!-- River -->
	<!--<use xlink:href="#MajorBusStop" x="585" y="485"/>-->
	<use xlink:href="#MajorBusStop" x="685" y="485"/>
	<!--<use xlink:href="#MajorBusStop" x="785" y="485"/>-->
	<!-- Row 6 -->
	<use xlink:href="#MajorBusStop" x="85" y="585"/>
	<use xlink:href="#MajorBusStop" x="185" y="585"/>
	<use xlink:href="#MajorBusStop" x="285" y="585"/>
	<use xlink:href="#MajorBusStop" x="385" y="585"/>
	<!-- River -->
	<use xlink:href="#MajorBusStop" x="585" y="585"/>
	<!--<use xlink:href="#MajorBusStop" x="685" y="585"/>-->
	<!--<use xlink:href="#MajorBusStop" x="785" y="585"/>-->
	<!-- Row 7 -->
	<use xlink:href="#MajorBusStop" x="85" y="685"/>
	<!--<use xlink:href="#MajorBusStop" x="185" y="685"/>-->
	<use xlink:href="#MajorBusStop" x="285" y="685"/>
	<use xlink:href="#MajorBusStop" x="385" y="685"/>
	<!-- River -->
	<use xlink:href="#MajorBusStop" x="585" y="685"/>
	<use xlink:href="#MajorBusStop" x="685" y="685"/>
	<use xlink:href="#MajorBusStop" x="785" y="685"/>
	<!-- Row 8 -->
	<!--<use xlink:href="#MajorBusStop" x="85" y="785"/>-->
	<use xlink:href="#MajorBusStop" x="185" y="785"/>
	<!--<use xlink:href="#MajorBusStop" x="285" y="785"/>-->
	<use xlink:href="#MajorBusStop" x="385" y="785"/>
	<!-- River -->
	<!--<use xlink:href="#MajorBusStop" x="585" y="785"/>-->
	<!--<use xlink:href="#MajorBusStop" x="685" y="785"/>-->
	<use xlink:href="#MajorBusStop" x="785" y="785"/>
	<!-- Row 9 -->
	<!--<use xlink:href="#MajorBusStop" x="85" y="885"/>-->
	<use xlink:href="#MajorBusStop" x="185" y="885"/>
	<!--<use xlink:href="#MajorBusStop" x="285" y="885"/>-->
	<!--<use xlink:href="#MajorBusStop" x="385" y="885"/>-->
	<!-- River -->
	<!--<use xlink:href="#MajorBusStop" x="585" y="885"/>-->
	<!--<use xlink:href="#MajorBusStop" x="685" y="885"/>-->
	<use xlink:href="#MajorBusStop" x="785" y="885"/>
	<!-- Row 10 -->
	<!--<use xlink:href="#MajorBusStop" x="85" y="985"/>-->
	<use xlink:href="#MajorBusStop" x="185" y="985"/>
	<!--<use xlink:href="#MajorBusStop" x="285" y="985"/>-->
	<!--<use xlink:href="#MajorBusStop" x="385" y="985"/>-->
	<!-- River -->
	<!--<use xlink:href="#MajorBusStop" x="585" y="985"/>-->
	<!--<use xlink:href="#MajorBusStop" x="685" y="985"/>-->
	<!--<use xlink:href="#MajorBusStop" x="785" y="985"/>-->
</g>
</svg>
