<?xml version="1.0" encoding="utf-8"?>
<!DOCTYPE svg PUBLIC "-//W3C//DTD SVG 1.1//EN" "http://www.w3.org/Graphics/SVG/1.1/DTD/svg11.dtd">
<!-- Hand Edited File to tidy things up -->
<svg version="1.1" xmlns="http://www.w3.org/2000/svg" xmlns:xlink="http://www.w3.org/1999/xlink" viewBox="0 0 900 1100">
<symbol id="MajorBusStop">
	<g>
		<circle cx="15" cy="15" r="12" fill="white" stroke="black" stroke-width="4" />
	</g>
</symbol>
<symbol id="TransportCentre">
	<g>
		<rect x="3" y="3" width="24" height="24" fill="white" stroke="black" stroke-width="4" />
	</g>
</symbol>
<g id="BG">
	<rect id="river" x="485" y="0" height="1110" width="30" fill="#007FFF" />
</g>
<g id="routes" style="fill:none;stroke-width:4;">
	<!-- Transport Center 400 300 -->
	<!-- Shift lines by factor of 4 (thinkness) to overcome overlapping lines -->
	<path id="route-01" style="stroke:#E2E41A;" d="M 394 300 L 394 100" title="Route #1" />
	<path id="route-02" style="stroke:#F58220;" d="M 399 300 L 399 603 L 452 652 L 597 652 L 756 800 L 800 800" title="Route #2" />
	<path id="route-03" style="stroke:#F1A424;" d="M 394 295 L 342 347 L 342 550 L 300 600 L 200 600 L 100 700 L 100 100" title="Route #3" />
	<path id="route-04" style="stroke:#5C89C6;" d="M 398 300 L 398 196 L 432 196 L 462 246 L 544 246 L 590 298 L 600 294 L 694 200 L 600 200" title="Route #4" />
	<path id="route-05" style="stroke:#E99BB7;" d="M 402 300 L 402 200 L 430 200 L 460 250 L 542 250 L 586 300 L 600 300 L 700 200" title="Route #5" />
	<path id="route-06" style="stroke:#E86D53;" d="M 400 294 L 346 348 L 346 648 L 296 698 L 196 798 L 196 1000" title="Route #6" />
	<path id="route-07" style="stroke:#7FD2A8;" d="M 400 300 L 350 350 L 350 650 L 300 700 L 200 800 L 200 1000" title="Route #7" />
	<path id="route-08" style="stroke:#FBCF18;" d="M 400 300 L 300 300 L 300 400 L 104 400 L 104 202 L 200 300" title="Route #8" />
	<path id="route-09" style="stroke:#AEC230;" d="M 400 306 L 300 206 L 250 250 L 154 250 L 154 352 L 96 410 L 96 200 L 200 200 L 300 100" title="Route #9" />
	<path id="route-10" style="stroke:#8B298F;" d="M 402 312 L 442 354 L 442 546 L 389 600 L 450 656 L 550 656 L 600 700 L 800 900" title="Route #10" />
	<path id="route-11" style="stroke:#93C542;" d="M 406 300 L 406 204 L 428 204 L 458 254 L 540 254 L 584 304 L 600 304 L 700 304" title="Route #11" />
	<path id="route-12" style="stroke:#F0A06D;" d="M 404 300 L 354 352 L 354 652 L 304 702 L 205 800 L 400 800" title="Route #12" />
	<path id="route-13" style="stroke:#CDCF23;" d="M 400 305 L 446 352 L 446 548 L 398 596 L 450 644 L 600 644 L 663 703 L 700 703 L 800 703" title="Route #13" />
	<path id="route-14" style="stroke:#660000;" d="M 405 294 L 458 347 L 458 398 L 600 398 L 700 398 L 800 300 L 700 200" title="Route #14" />
	<path id="route-15" style="stroke:#00AA4F;" d="M 404 298 L 454 348 L 454 402 L 700 402 L 850 550 L 850 750 L 800 800" title="Route #15" />
	<path id="route-16" style="stroke:#C3A833;" d="M 400 300 L 458 258 L 538 258 L 600 330 L 660 330 L 696 300 L 696 100" title="Route #16" />
	<path id="route-17" style="stroke:#E11729;" d="M 400 300 L 450 350 L 450 550 L 404 596 L 452 640 L 550 640 L 600 600 L 750 600 L 800 650 L 800 700" title="Route #17" />
	<path id="route-18" style="stroke:#80D0F5;" d="M 400 300 L 300 200 L 300 100" title="Route #18" />
	<path id="route-CE" style="stroke:#EA6848;" d="M 400 296 L 350 245 L 350 156 L 300 106" title ="Route #CE" />
	<path id="route-OB" style="stroke:#939598;" d="M 200 100 L 300 100 L 350 150 L 540 150 L 580 200 L 600 200 L 700 100 L 700 699 L 800 699 L 750 747 L 704 747 L 598 648 L 450 648 L 400 700 L 100 700 L 50 650 L 50 450 L 150 350 L 150 150 L 200 100" title="Orbiter" />
</g>
<g id="stops">
	<!-- Based on a stop having the dimensions of 15x15 these place them directly in the middle of lines -->
	<!-- Row 1 -->
	<use id="stop-01" xlink:href="#MajorBusStop" x="85" y="85"/>
	<use id="stop-02" xlink:href="#MajorBusStop" x="185" y="85"/>
	<use id="stop-03" xlink:href="#MajorBusStop" x="285" y="85"/>
	<use id="stop-04" xlink:href="#MajorBusStop" x="385" y="85"/>
	<!-- River -->
	<!--<use xlink:href="#MajorBusStop" x="585" y="85"/>-->
	<use id="stop-05" xlink:href="#MajorBusStop" x="685" y="85"/>
	<!--<use xlink:href="#MajorBusStop" x="785" y="85"/>-->
	<!-- Row 2 -->
	<use id="stop-06" xlink:href="#MajorBusStop" x="85" y="185"/>
	<!--<use xlink:href="#MajorBusStop" x="185" y="185"/>-->
	<use id="stop-07" xlink:href="#MajorBusStop" x="285" y="185"/>
	<use id="stop-08" xlink:href="#MajorBusStop" x="385" y="185"/>
	<!-- River -->
	<use id="stop-09" xlink:href="#MajorBusStop" x="585" y="185"/>
	<use id="stop-10" xlink:href="#MajorBusStop" x="685" y="185"/>
	<!--<use xlink:href="#MajorBusStop" x="785" y="185"/>-->
	<!-- Row 3 -->
	<!--<use xlink:href="#MajorBusStop" x="85" y="285"/>-->
	<use id="stop-11" xlink:href="#MajorBusStop" x="185" y="285"/>
	<!--<use xlink:href="#MajorBusStop" x="285" y="285"/>-->
	<use id="stop-12" xlink:href="#TransportCentre" x="385" y="285"/>
	<!-- River -->
	<use id="stop-13" xlink:href="#MajorBusStop" x="585" y="285"/>
	<use id="stop-14" xlink:href="#MajorBusStop" x="685" y="285"/>
	<use id="stop-15" xlink:href="#MajorBusStop" x="785" y="285"/>
	<!-- Row 4 -->
	<use id="stop-16" xlink:href="#MajorBusStop" x="85" y="385"/>
	<!--<use xlink:href="#MajorBusStop" x="185" y="385"/>-->
	<use id="stop-17" xlink:href="#MajorBusStop" x="285" y="385"/>
	<!--<use xlink:href="#MajorBusStop" x="385" y="385"/>-->
	<!-- River -->
	<use id="stop-18" xlink:href="#MajorBusStop" x="585" y="385"/>
	<!--<use xlink:href="#MajorBusStop" x="685" y="385"/>-->
	<!--<use xlink:href="#MajorBusStop" x="785" y="385"/>-->
	<!-- Row 5 -->
	<!--<use xlink:href="#MajorBusStop" x="85" y="485"/>-->
	<!--<use xlink:href="#MajorBusStop" x="185" y="485"/>-->
	<!--<use xlink:href="#MajorBusStop" x="285" y="485"/>-->
	<use id="stop-19" xlink:href="#MajorBusStop" x="385" y="485"/>
	<!-- River -->
	<!--<use xlink:href="#MajorBusStop" x="585" y="485"/>-->
	<use id="stop-20" xlink:href="#MajorBusStop" x="685" y="485"/>
	<!--<use xlink:href="#MajorBusStop" x="785" y="485"/>-->
	<!-- Row 6 -->
	<use id="stop-21" xlink:href="#MajorBusStop" x="85" y="585"/>
	<use id="stop-22" xlink:href="#MajorBusStop" x="185" y="585"/>
	<use id="stop-23" xlink:href="#MajorBusStop" x="285" y="585"/>
	<use id="stop-24" xlink:href="#MajorBusStop" x="385" y="585"/>
	<!-- River -->
	<use id="stop-25" xlink:href="#MajorBusStop" x="585" y="585"/>
	<!--<use xlink:href="#MajorBusStop" x="685" y="585"/>-->
	<!--<use xlink:href="#MajorBusStop" x="785" y="585"/>-->
	<!-- Row 7 -->
	<use id="stop-26" xlink:href="#MajorBusStop" x="85" y="685"/>
	<!--<use xlink:href="#MajorBusStop" x="185" y="685"/>-->
	<use id="stop-27" xlink:href="#MajorBusStop" x="285" y="685"/>
	<use id="stop-28" xlink:href="#MajorBusStop" x="385" y="685"/>
	<!-- River -->
	<use id="stop-29" xlink:href="#MajorBusStop" x="585" y="685"/>
	<use id="stop-30" xlink:href="#MajorBusStop" x="685" y="685"/>
	<use id="stop-31" xlink:href="#MajorBusStop" x="785" y="685"/>
	<!-- Row 8 -->
	<!--<use xlink:href="#MajorBusStop" x="85" y="785"/>-->
	<use id="stop-32" xlink:href="#MajorBusStop" x="185" y="785"/>
	<!--<use xlink:href="#MajorBusStop" x="285" y="785"/>-->
	<use id="stop-33" xlink:href="#MajorBusStop" x="385" y="785"/>
	<!-- River -->
	<!--<use xlink:href="#MajorBusStop" x="585" y="785"/>-->
	<!--<use xlink:href="#MajorBusStop" x="685" y="785"/>-->
	<use id="stop-34" xlink:href="#MajorBusStop" x="785" y="785"/>
	<!-- Row 9 -->
	<!--<use xlink:href="#MajorBusStop" x="85" y="885"/>-->
	<use id="stop-35" xlink:href="#MajorBusStop" x="185" y="885"/>
	<!--<use xlink:href="#MajorBusStop" x="285" y="885"/>-->
	<!--<use xlink:href="#MajorBusStop" x="385" y="885"/>-->
	<!-- River -->
	<!--<use xlink:href="#MajorBusStop" x="585" y="885"/>-->
	<!--<use xlink:href="#MajorBusStop" x="685" y="885"/>-->
	<use id="stop-36" xlink:href="#MajorBusStop" x="785" y="885"/>
	<!-- Row 10 -->
	<!--<use xlink:href="#MajorBusStop" x="85" y="985"/>-->
	<use id="stop-37" xlink:href="#MajorBusStop" x="185" y="985"/>
	<!--<use xlink:href="#MajorBusStop" x="285" y="985"/>-->
	<!--<use xlink:href="#MajorBusStop" x="385" y="985"/>-->
	<!-- River -->
	<!--<use xlink:href="#MajorBusStop" x="585" y="985"/>-->
	<!--<use xlink:href="#MajorBusStop" x="685" y="985"/>-->
	<!--<use xlink:href="#MajorBusStop" x="785" y="985"/>-->
</g>
</svg>
